<svg width="10" height="10" viewBox="0 0 10 10" fill="none" xmlns="http://www.w3.org/2000/svg">
<g clip-path="url(#clip0_120_638)">
<path d="M7.14385 1.13247C6.73565 1.13882 6.33636 1.25276 5.9863 1.4628C5.63623 1.67284 5.34779 1.97154 5.1501 2.32872C4.9524 1.97154 4.66396 1.67284 4.31389 1.4628C3.96383 1.25276 3.56454 1.13882 3.15635 1.13247C2.50564 1.16074 1.89256 1.4454 1.45107 1.92425C1.00957 2.40311 0.775535 3.03723 0.800095 3.68809C0.800095 6.14403 4.77165 8.98059 4.94057 9.10094L5.1501 9.24921L5.35962 9.10094C5.52855 8.98132 9.5001 6.14403 9.5001 3.68809C9.52466 3.03723 9.29062 2.40311 8.84912 1.92425C8.40763 1.4454 7.79455 1.16074 7.14385 1.13247V1.13247Z" fill="white"/>
</g>
<defs>
<clipPath id="clip0_120_638">
<rect width="8.7" height="8.7" fill="white" transform="translate(0.799988 0.8)"/>
</clipPath>
</defs>
</svg>
